/* XPM */
static char *_cfe110e35da4dadac4b8f9d2a7ddd2bB4sDH19jphMtYSbZ[] = {
/* columns rows colors chars-per-pixel */
"64 64 217 2 ",
"   c #050404",
".  c #080607",
"X  c #090708",
"o  c #070808",
"O  c #0D0B0C",
"+  c #100E0F",
"@  c #0D0F10",
"#  c #110F10",
"$  c #0F1214",
"%  c #131112",
"&  c #191617",
"*  c #151619",
"=  c #191718",
"-  c #161A1D",
";  c #1B1B1D",
":  c #161D20",
">  c #1A1F22",
",  c #1C2123",
"<  c #1E252A",
"1  c #1E282C",
"2  c #222529",
"3  c #26292B",
"4  c #21292E",
"5  c #242D32",
"6  c #2B2E32",
"7  c #2B3236",
"8  c #26353A",
"9  c #2B343A",
"0  c #333C3F",
"q  c #2C3D45",
"w  c #323E43",
"e  c #2D4148",
"r  c #334248",
"t  c #3C494E",
"y  c #354A53",
"u  c #3A4B55",
"i  c #375058",
"p  c #3B535D",
"a  c #395661",
"s  c #3F626C",
"d  c #4A555A",
"f  c #425B64",
"g  c #4D5D64",
"h  c #435F6A",
"j  c #43616C",
"k  c #56676E",
"l  c #486674",
"z  c #4B6B74",
"x  c #446C79",
"c  c #4B6D7B",
"v  c #546E77",
"b  c #4B717D",
"n  c #53737F",
"m  c #5F727A",
"M  c #4C7A87",
"N  c #567A85",
"B  c #547C8A",
"V  c #537F90",
"C  c #607982",
"Z  c #56818E",
"A  c #4F8896",
"S  c #4C8C9D",
"D  c #558493",
"F  c #5B8493",
"G  c #598796",
"H  c #548C9C",
"J  c #5B8C9A",
"K  c #4B909F",
"L  c #55909E",
"P  c #688897",
"I  c #738B92",
"U  c #64949D",
"Y  c #4D8DA1",
"T  c #528DA2",
"R  c #5B8EA1",
"E  c #4E94A5",
"W  c #5392A5",
"Q  c #5C93A4",
"!  c #5594AA",
"~  c #5B95AA",
"^  c #559AAA",
"/  c #5B9AAC",
"(  c #5B9DB4",
")  c #5A9EB6",
"_  c #6295A5",
"`  c #6997A4",
"'  c #6197AC",
"]  c #629BAC",
"[  c #799AA6",
"{  c #7095AA",
"}  c #639DB2",
"|  c #619EBA",
" . c #5CA1B4",
".. c #5DA3B9",
"X. c #5EA9BE",
"o. c #61A2AF",
"O. c #6AA3AD",
"+. c #77A4AC",
"@. c #64A2B4",
"#. c #69A3B5",
"$. c #66A8B5",
"%. c #69A8B5",
"&. c #64A5BB",
"*. c #6AA6BC",
"=. c #66AABD",
"-. c #6AAABE",
";. c #73A5B5",
":. c #7CABB5",
">. c #72A5BA",
",. c #72ACBC",
"<. c #7CAEBE",
"1. c #69B1BF",
"2. c #74B1BE",
"3. c #66A6C0",
"4. c #6DA7C0",
"5. c #66ABC1",
"6. c #6CABC2",
"7. c #73A7C4",
"8. c #72ADC3",
"9. c #79AFC2",
"0. c #67B1C3",
"q. c #6BB2C4",
"w. c #74B2C5",
"e. c #7CB3C2",
"r. c #7DB8C5",
"t. c #75B3CA",
"y. c #7AB5CA",
"u. c #73BBCB",
"i. c #7CB9CD",
"p. c #77B6D0",
"a. c #7ABBD2",
"s. c #7BC1D3",
"d. c #809299",
"f. c #83ACB9",
"g. c #90AEB3",
"h. c #87B3BD",
"j. c #80AFCC",
"k. c #84B4C4",
"l. c #8CB6C5",
"z. c #87BBC5",
"x. c #82B6C9",
"c. c #83BACB",
"v. c #8BBCCD",
"b. c #99B8C3",
"n. c #92BDCD",
"m. c #86BBD1",
"M. c #88C2CE",
"N. c #99C2C7",
"B. c #93C5CB",
"V. c #9ECACF",
"C. c #8DC3D3",
"Z. c #84C3D8",
"A. c #93C3D2",
"S. c #9CC5D4",
"D. c #9CCAD3",
"F. c #93C7D9",
"G. c #99CBD8",
"H. c #A3C3CF",
"J. c #A6CBD5",
"K. c #A2CCDB",
"L. c #B4CBD0",
"P. c #A4D3DE",
"I. c #ACD2DB",
"U. c #B3D6DD",
"Y. c #88C4E4",
"T. c #96C9E2",
"R. c #94CEEB",
"E. c #86D0EF",
"W. c #8BD2EF",
"Q. c #9FD5E3",
"!. c #85CEF1",
"~. c #8ACDF2",
"^. c #85D3F4",
"/. c #8DD4F4",
"(. c #89D7FA",
"). c #8AD9FC",
"_. c #93D6F4",
"`. c #92D9F7",
"'. c #9CDCF5",
"]. c #91D5F8",
"[. c #94DAFA",
"{. c #9CDDFB",
"}. c #ACD4E2",
"|. c #A6DCE9",
" X c #B3D6E3",
".X c #B7DAE5",
"XX c #A3DDF3",
"oX c #9FE1F7",
"OX c #9FE1FA",
"+X c #AEE3EB",
"@X c #BCE7EC",
"#X c #A3E1F6",
"$X c #ADE4F3",
"%X c #A3E1F9",
"&X c #ACE4F9",
"*X c #AFE9FC",
"=X c #B3E5F4",
"-X c #BEE5F5",
";X c #B7ECF3",
":X c #BCECF5",
">X c #B4E9FB",
",X c #BAEBFA",
"<X c #BDF2F9",
"1X c #C2E1EC",
"2X c #C8E7EE",
"3X c #C5E9F5",
"4X c #C4EBF5",
"5X c #CCEDF5",
"6X c #D4EEF9",
"7X c #C4F2F5",
"8X c #CDF1F5",
"9X c #C3F5FA",
"0X c #CAF6FD",
"qX c #D3F4F7",
"wX c #D4F4FC",
"eX c #DAF4FC",
"rX c #E1F7FF",
/* pixels */
"O O O O X     O O O O O O O O O O X O O O O O O O O X O + X     X .     X % O O O O O O X O % O + O O O O X O + O O O O O O X O ",
"% + % % O . . % + % % % % # + # % O # % % % + + + % O % % O   . O .   . + & % % # # + + O # & % % % % + + O + % # % % % # # + O ",
"% % % % O X X % # % % % % % % % % # % % % % % % # % + % & +   . O O . X % = % % % % % % O + & % & % # % % # % % % & & % % % # + ",
"% + O X . . X % O # # # % + O O # O # % + # O O + # O + % O     O O O X % & # # + % + O X . % # % O . X O O O % O % % + O O O O ",
"% + O X . X O % O # # # # + O O % O # % # # O O O # O + % + . . O # + O % % + # + % # O X . % + % O . X O O + % O % % + O + O O ",
"O O O O X O O O X O O O O O O O O O O + O O X X X O X O % O X X O O O O O . . O O O O O X X # O O O X . . . O O O + O O O O O O ",
"% O # % + O O % O # # # % O O O % + % % # # O O O O O + % # % + + O # O O     O + + O + O + % + % % % X   . O % + % % % # + O O ",
"% + % % % # % % + % % % % # O O % % % % % % + # # % + % % + % # % # % + O X . # % % % % O % & % & % % O . X % & % % % % % % # + ",
"% O + # O O O % O + O + # O . . O O # # O + O O O + O O .   O O O O O X . + O # + + O O O + % O # + + O O O O % O # % # O O O O ",
"% O # % + O O % + # # # # O . . O O # % % > , , , < , > - * > > , > > - % & + # + # + + O + % O % # # + + O + % + % % % + O + O ",
"% O # % O O O % O % # # # O X X + O * 5 p ` 7.t.t.p.p.t.t.7.7.7.7.>.>.+.P f 5 ; % # # + O + % + % % # + + O + % O % % # + O O O ",
"% O # % + O O % + # # # % + O O % 4 p P y.Y.^.(.).).).(.^.!.~.~././.`._.R.v.{ g 9 ; # + O + % + % % % + + O O % O % % # + + O O ",
"% O + # + O + % + # # + # + % 2 t ` j.Y.~./.(.).).).(.^.!.!./.].[.{.{.{.{.XXQ.n.[ d 3 & O + % + % % # + + O O % + % O O O O O O ",
"# O O + O O O # O O O O + * t [ l.T.R.R._.[.).).).).^.^.E.E./.`.{.{.%X{.%X#XXX|.}.b.d.d 2 % % O # + + O O O O # O + X   . O O O ",
"% + % % % + # % + % % % % 0 g.@X:X$XXXXX'.OX{.[.`.`././.W._._.'.XX&X&X&X&X=X=X:X4X4X2XL.I 6 & % % % % % # O # % # % X   X O + O ",
"O O % % # O O % + % % % , f :.P.;X<X<X,X>X*X&X%X%XoXoX'.#X%X&X*X>X>X,X,X-X4X4X0XwXwX8X.Xg.d , % % % % # # O # % # % O X O + # + ",
"  . O % O . . O O # O - i G O.2.C.+X9X0X9X;X=X$X$X$X$X$X*X>X>X,X:X4X4X4X4X5XwXeXeX2XU.V.h.F r * % # # O O O O % O % # + O O O O ",
". o O O X . . O O O % 0 B ] @.@.-.c.|.<X0X7X:X:X;X:X:X:X:X:X4X4X4X8X8X5X5X6XeXrX6XU.V.B.z.` z 5 % + + O O O O % O # # + O O O O ",
"O X O O O . . O O % 4 c _ ]  . .$.2.r.F.+X9X7X7X7X7X7X7X7X8X8X8X8X8X8XqXqXeXeXeX6X.XD.B.z.O.G h 4 % + O O O O # O # # + O O O O ",
"% O $ % O . . % O , h J ]  .( ..&.=.-.w.M.Q.G.B.B.B.B.B.N.N.N.N.V.J.J.I.U.1X2X6X1XI.D.C.e.#._ F f 2 % O O O + % + % % % + O O O ",
"# O # # O . . + % q D ) (  . . ...5.0.0.w.i./ L H H H H J J J U U ` +.+.h.I. X1X XD.A.M.w.@.] Q F p & O O O O % O + + O O X O O ",
"% O # % O . . + , l ~ ) ) )  .)  .X.0.0.u.s.^ S S S S S S S S H Q ` O.O.:.D.I. XJ.S.C.c.,.@.} ] _ N ; O O O O % + % % O .   X O ",
"& % % % % X X % < c Q ( ) .. .)  .&.0.u.u.u.^ S S Y Y Y Y S Y Y W / o.$.,.z.P.}.S.A.v.e.*.} } ' _ B , % % O # & % & & % X   O # ",
"% + # % + X X % & q B / )  .) )  ...=.u.u.1.E S S Y Y Y Y Y Y Y ! /  . .%.e.G.K.A.v.r.,.#.} } ' D p * # + X X % # % % # O X O O ",
"% O # # + O O % O > a H ) ) ) ) ) ..=.u.u. .K S S Y Y Y Y Y Y T ! / ) / o.,.A.F.C.c.,.#.} } } R h < % + O . . + + % % # + O O O ",
"O X O O O O O O X O < s H ) ) ) ) &.5.u.u.^ S Y S S Y S H S H T T ! ! ^ / #.x.F.v.w.%.@.) } ~ M 5 % O O O . . + O X O O O O O O ",
"# O O + O O O + O + % 8 b Q ( ( &.3.q.a.s. .W E Y Y Y Y Y Y T T T T T W Q / ,.C.t.-...( ) / G i - O O O O O O % O . X O O O O O ",
"% % % % # + + % O % % ; y V ~ } *.8.t.Z.Z.&./ W Y Y Y Y Y Y Y S S S S S W W ] i.8.&.( ( / R c 5 & % % # # + # % O . O % % # + # ",
"% O O O O O O + X X O + < h G ] >.9.x.F.C.,.} / W Y Y Y Y Y Y Y S S S S S S W -.t.&.( / Q B r * # O O O O O O % O O O O X . X X ",
"% + # # + O + % O . O # & 9 n ` ;.k.v.G.A.<.>.@.~ Y Y Y Y Y Y Y S S S S S Y Y ( a.&.! ~ J f 2 % % # # # + O % % + % % + .   X O ",
"& % & & % % % & O . O % & ; t P :.h.l.K.n.<.<.%.] W Y Y Y Y T T Y Y W Y Y Y Y ! t.) W H c 7 ; % % % % % % # % & % & & % X . O # ",
"% O + % + O O % O O + + # # 2 v +.f.l.}.S.l.k.e.#./ ! ! ! W ! ~ ~ / / / / / ! / &.! T M q $ % + # # # # + O O % + % % + O O O O ",
"% O + % # O # % O + # % % + & w I f.H.-X.XS.v.c.8.&.&.&.&.*.*.-.6.t.t.t.8.-.&.@./ S A s : X % # % % % + O O O % # % % + O O O O ",
"O X O O O O O + O O O + + O + ; g [ H.1X-XK.A.c.w.-.3.6.6.6.6.8.t.i.i.i.w.6.*.} W A M 8 O X O O O O O O X . X # O O O O O X X X ",
"% O + + O O O # O + + + # + + % 6 k I I. Xn.v.c.8.-.3.6.5.6.6.t.i.i.t.t.8.*.@.~ H D j > O O % + # + + O O O O % O # % + O O O O ",
"& % % % O O # % + % % % % # # % = 7 m b.S.k.x.y.8.*.&.6.5.6.w.y.m.i.w.8.-.*.} R D z 5 % O # & % % % % % % O % & % % % % % % % # ",
"+ O O X . X O # O + + + + O O O X = g [ l.e.9.7.4.&.3.6.6.6.t.i.i.w.6.6.6.*./ H b 5 O O X O % O + O O O O X O % O # # + O O O O ",
"% # + .   X + % + % % % % # # O   X 7 C [ ;.#.*.&.&.3.6.6.8.t.i.y.8.-.-.-.@.Q Z u % X + O # % % % % % # + O # % # % % % # + + O ",
"& % # X . O % & # % & % % + # + X . % 9 v _ ' } | | &.3.6.t.y.t.8.6.-.-.&.] J z 2 O O % # % & % % % % % % + % & % & & % % % % # ",
"% O # + O O O % O % % O . . O O + X . @ e B R / ) | &.3.q.t.t.8.6.6.-.-.@.Q M w & + + + + + % O % # # O O O O % + % % # + O O O ",
"% O + % + O O O O O O O .   . O % O . . - p M H / &.&.&.6.t.6.6.-.6.-.*.] D p , # + + + + + % + # # + O O X O % O % # + O O O X ",
"+ O O O O O X .   . X O O X X O O O O O O < p x H ) ..&.3.6.6.-.-.-.*.@.J z < # O + O O O + % O O O O .   . O + O # O O O X .   ",
"% O + + O + O       X # % + + O # O % % # % 1 a M / &.&.&.&.&.&.-.-.*.` B q @ + + # + + O + & % % # + X   . + % O % % + O O .   ",
"% + % + X O O     . O # % + O O % + # O O O % q x L @.&...&.&.&.-.*.#.J f : X % # # + + O + & % % % % X . X # % + % % % # O X . ",
"% O + X . X X     O O + + O . . O O O .     . $ e M / @.....&.=.=.#._ b 5 % O # + + O O O O % + % # # O O O O % O % # # + O O X ",
"% + + X   X X . . O + + % + .   O O # X       . : p H / ( ..&.3.&.@.Z q * & + # # % + + O # # O % % # O # O O % # % % % # # O + ",
"% + # O X O O O X # % % % # X . X X O O X X X o @ 8 b Q ) ..&.3.&.Q h > # % # % # % + + O O X X % % # O + O O % # % % % # + O O ",
"% O % % O O O % O # % % % O O X   . O % # O O O O - y D / ) &.*.} b 5 @ + % # % # # O O O O . . + % % + + O + % O % % % # + O O ",
"+ X O O O O O % O O + + + O O X . . X O + O O O O % < l Q } &.#.F q @ X O % O O O O O O O O X . O # + O O O O O X # # + O X O O ",
"# . . X O O O # O O O + + O O O O X . O O + O O O + % 9 n _ @.` f %   . O % O . . O O O O O # O + + + O O O O     + % O .   X O ",
"% X . O # + % % # % % % % % # + % O . O % % % % % % # ; u F ` B 4 .   . # & O . . # % % O % & % % % % % # + O .   % & % X   X O ",
"X X X X X O + % O % # # % + O O % O X O % % # # # % O % 4 z N r % . X X # & + O O % + + O + % O % % % O X X O X X # % % O X O O ",
"  . O .   X O # O % + O # O O O % O + % # # O O O # O O * 7 t > O O O O + % # + O # O O O + % O % # O X   . O % O % % # O O O O ",
". X O X   X O X X + O O O O O O + O + + + + O O O # O O % & ; % O O + O + % # + O O O O O O % + % # O X . . O % O # % # + O O O ",
"O O O O X O X     O O O + O O O # O # # + + O O O + O O % O # O O O O O # & # # O O O + X O % + % # # O O X O # O + # + O O O O ",
"% O # % % + O   . + # # % + O O % O % % % % # # # # O # % % % + # + # O # & % % # # % % O # % # % % % + + O + % # % % % % + O + ",
"+ O O + O O O X X O O + + O X X O O # % O + O O O O X O + O # O O O O X X % + + O O + O X O % O X X O O O O O % O + + # + O O O ",
"# O + % + O + % O % # # % + . . O O # % # % O O O + O % % # % + # + + X . % # % + # # O O O % O   . O + O O O % O # # # # O O O ",
"% % % % % # % & # % % % % + . . # # % & % % # % % % + % & % % % % % % O X & % % % % % % + % = + . X % % % # % & % % % % % % % # ",
"% + % % O O O % O . X O X . . . . . O % + X . O O + X X + + # + + + # X X % + % + # + + O O % O X O # # + O O % O % % # O O O O ",
"# O # # O O O % O . X O .   X X     O % + .   X O # X . O + % + + + # O O % + # + # O + O O % O % # # + + O O # O % % # + O O O ",
"O O O X . X X + O X X X X X X O X . O + O X X O O O X . O O O O O O O X O + O O O O O O X O X X O O O O O X O # O + + O O O O X ",
"# O O .   . O # O + X . O O O O + O + + O # O O O + X . # # # + + O O O + % + # O + O O O X     + + + O O X O % O # # + O O O O ",
"& % % .   X # & % % X . O % % % & % % & % & % # % % O . & & & % % % % + % = % & % % % % # O   . % % % % % + % & % & & & % % % % "
};
