/* XPM */
static char *cccebc15a14240ffd95e2e9b744f964bp0gzVx48rKlcCw6u[] = {
/* columns rows colors chars-per-pixel */
"64 64 224 2 ",
"   c #2A272D",
".  c #2D2B33",
"X  c #342D33",
"o  c #36333B",
"O  c #3A353A",
"+  c #3A363A",
"@  c #302B2E",
"#  c #592819",
"$  c #6A2E16",
"%  c #6A321D",
"&  c #7C3618",
"*  c #702F17",
"=  c #462B2B",
"-  c #43383C",
";  c #54312B",
":  c #693625",
">  c #783B23",
",  c #623A30",
"<  c #7E442C",
"1  c #764838",
"2  c #69423A",
"3  c #3C3B44",
"4  c #3C3D4C",
"5  c #383845",
"6  c #3E3F52",
"7  c #433D42",
"8  c #423D4B",
"9  c #4A3C44",
"0  c #413F51",
"q  c #3D404F",
"w  c #3E4153",
"e  c #3E4A5A",
"r  c #444144",
"t  c #484344",
"y  c #44434D",
"u  c #4B464A",
"i  c #4D494B",
"p  c #514C4E",
"a  c #424253",
"s  c #4C4C52",
"d  c #454A5B",
"f  c #484757",
"g  c #524E50",
"h  c #584E59",
"j  c #555354",
"k  c #5A5455",
"l  c #5C5659",
"z  c #5C5A5B",
"x  c #5A5758",
"c  c #515153",
"v  c #7A5145",
"b  c #635D5E",
"n  c #6C5C5C",
"m  c #665459",
"M  c #705E5C",
"N  c #684A47",
"B  c #79625D",
"V  c #4B4E61",
"C  c #4C5265",
"Z  c #4E596C",
"A  c #4D536C",
"S  c #535466",
"D  c #535A6D",
"F  c #5B5B6B",
"G  c #585968",
"H  c #4F5870",
"J  c #525A72",
"K  c #585A72",
"L  c #635A62",
"P  c #53626D",
"I  c #5D626C",
"U  c #566466",
"Y  c #5E6470",
"T  c #5A6C74",
"R  c #576B76",
"E  c #5B737C",
"W  c #58767C",
"Q  c #656363",
"!  c #6A6565",
"~  c #6D6B6B",
"^  c #68676A",
"/  c #726D6D",
"(  c #766662",
")  c #646973",
"_  c #647377",
"`  c #777777",
"'  c #797677",
"]  c #7B7876",
"[  c #7A7778",
"{  c #767879",
"}  c #7C7B7B",
"|  c #777877",
" . c #75706E",
".. c #843C1A",
"X. c #833E25",
"o. c #8D421E",
"O. c #98491F",
"+. c #8D4522",
"@. c #884527",
"#. c #914621",
"$. c #944923",
"%. c #994C27",
"&. c #8A513B",
"*. c #96573D",
"=. c #8E4F33",
"-. c #A64E21",
";. c #A85529",
":. c #BD5B24",
">. c #BA5D29",
",. c #B45726",
"<. c #A85A33",
"1. c #B65C33",
"2. c #BE622D",
"3. c #BA6636",
"4. c #AD653D",
"5. c #BA581E",
"6. c #C15E25",
"7. c #C4642A",
"8. c #CB6B2D",
"9. c #C5642A",
"0. c #CC6D31",
"q. c #C26935",
"w. c #CE7233",
"e. c #CA743B",
"r. c #D27435",
"t. c #D47937",
"y. c #D57B3A",
"u. c #DA7D3B",
"i. c #D67738",
"p. c #CF7031",
"a. c #895847",
"s. c #945E47",
"d. c #9A6447",
"f. c #8B6656",
"g. c #A27658",
"h. c #AE714B",
"j. c #827E7E",
"k. c #827A75",
"l. c #89786A",
"z. c #CC7C44",
"x. c #7F8A7F",
"c. c #DC823E",
"v. c #E0843F",
"b. c #85857C",
"n. c #958775",
"m. c #97947A",
"M. c #97826F",
"N. c #AE825F",
"B. c #DE8541",
"V. c #DE8842",
"C. c #C38553",
"Z. c #E18642",
"A. c #E28A44",
"S. c #E58D49",
"D. c #E6914B",
"F. c #EA9850",
"G. c #5D7B83",
"H. c #647C85",
"J. c #646E80",
"K. c #827F80",
"L. c #5D8287",
"P. c #5E8489",
"I. c #678388",
"U. c #648E91",
"Y. c #639091",
"T. c #838282",
"R. c #8A8585",
"E. c #8B8B84",
"W. c #8D8A8B",
"Q. c #898984",
"!. c #928D8D",
"~. c #998D89",
"^. c #949292",
"/. c #9B9595",
"(. c #9D9A9B",
"). c #9F9996",
"_. c #93908C",
"`. c #A29D9D",
"'. c #A79B97",
"]. c #A2958F",
"[. c #A7A09E",
"{. c #ABA5A4",
"}. c #A9A5A5",
"|. c #B3ADAD",
" X c #B4A8A5",
".X c #BBB6B5",
"XX c #BDBABA",
"oX c #B4B2B2",
"OX c #BCB2AF",
"+X c #C3B5B2",
"@X c #C2BDBD",
"#X c #CDBEBA",
"$X c #C8B9B5",
"%X c #CBB9B3",
"&X c #D6C3BD",
"*X c #CEC0BE",
"=X c #C3BFC0",
"-X c #C6C2C3",
";X c #C9C6C6",
":X c #CBC7C8",
">X c #CCCACA",
",X c #CAC8C7",
"<X c #DBCAC5",
"1X c #D1CDCE",
"2X c #DCCDC9",
"3X c #D7C7C2",
"4X c #D6D2D3",
"5X c #DBD5D5",
"6X c #DDDADB",
"7X c #DBD7D8",
"8X c #DED0CC",
"9X c #E1CEC9",
"0X c #E2CCC5",
"qX c #E3D2CD",
"wX c #E8D2CC",
"eX c #E2D5D2",
"rX c #E2DDDD",
"tX c #E6DBDA",
"yX c #E2DFE0",
"uX c #E5E2E2",
"iX c #E5E2E2",
"pX c #E9E5E6",
"aX c #EBE7E8",
"sX c #ECE9EA",
/* pixels */
"` ` ` ` ` ` ` ` ` ` ` ` ` ` ` ` ` ` ` ` ` ` ` ` ` ` ` ` ` ` ` ` ` ` ` ` ` ` ` ` ` ` ` ` ` ` ` ` ` ` ` ` ` ` ` ` ` ` ` ` ` ` ` ` ",
"` ` ` ` ` ` ` ` ` ` ` ` ` ` ` ` ` ` ` ` ` ` ` ` ` ` ` ` ` ` ` ` ` ` ` ` ` ` ` ` ` ` ` ` ` ` ` ` ` ` ` ` ` ` ` ` ` ` ` ` ` ` ` ` ",
"` ` ` ` ` ` ` ` ` ` ` ` ` ` ` ` ` ` ` ` ` ` ` ` ` ` ` ` ` ` ` ` ` ` ` ` ` ` ` ` ` ` ` ` ` ` ` ` ` ` ` ` ` ` ` ` ` ` ` ` ` ` ` ` ",
"` ` ` ` ` ` ` ` ` ` ` ` ` ` ` ` ` ` ` ` ` ` ` ` ` ` ` ` ` ` ` ` ` ` ` ` ` ` ` ` ` ` ` ` ` ` ` ` ` ` ` ` ` ` ` ` ` ` ` ` ` ` ` ` ",
"` ` ` ` ` ` ` ` ` ` ` ` ` ` ` ` ` ` ` ` ` ` ` ` ` ` ` ` ` ` ` ` ` ` ` ` ` ` ` ` ` ` ` ` ` ` ` ` ` ` ` ` ` ` ` ` ` ` ` ` ` ` ` ` ",
"` ` ` ` ` ` ` ` ` ` ` ` ` ` ` ` ` ` ` ` ` ` ` ` ` ` ` ` ` ` ` ` ` ` ` ` ` ` ` ` ` ` ` ` ` ` ` ` ` ` ` ` ` ` ` ` ` ` ` ` ` ` ` ` ",
"` ` ` ` ` ` ` ` ` ` ` ` ` ` ` ` ` ` ` ` ` ` ` ` ` ` ` ` ` ` ` ` ` ` ` ` ` ` ` ` ` ` ` ` ` ` ` ` ` ` ` ` ` ` ` ` ` ` ` ` ` ` ` ` ",
"` ` ` ` ` ` ` ` ` ` ` ` ` ` ` ` ` ` ` ` ` ` ` ` ` ` ` ` ` ` ` ` ` ` ` ` ` ` ` ` ` ` ` ` ` ` ` ` ` ` ` ` ` ` ` ` ` ` ` ` ` ` ` ` ",
"` ` ` ` ` ` ` ` ` ` ` ` ` ` ` ` ` ` ` ` ` ` ` ` ` ` ` ` ` ` ` ` ` ` ` ` ` ` ` ` ` ` ` ` ` ` ` ` ` ` ` ` ` ` ` ` ` ` ` ` ` ` ` ` ",
"` ` ` ` ` ` ` ` ` ` ` ` ` ` ` ` ` ` ` ` ` ` ` ` ` ` ` ` ` ` ` ` ` ` ` ` ` ` ` ` ` ` ` ` ` ` ` ` ` ` ` ` ` ` ` ` ` ` ` ` ` ` ` ` ",
"` ` ` ` ` ` ` ` ` ` ` ` ` ` ` ` ` ` ` ` ` ` ` ` ` ` ` ` ` ` ` ` ` ` ` ` ` ` ` ` ` ` ` ` ` ` ` ` ` ` ` ` ` ` ` ` ` ` ` ` ` ` ` ` ",
"` ` ` ` ` ` ` ` ` ` ` ` ` ` ` ` ` ` ` ` ` ` ` ` ` ` ` ` ` ` ` ` ` ` ` ` ` ` ` ` ` ` ` ` ` ` ` ` ` ` ` ` ` ` ` ` ` ` ` ` ` ` ` ` ",
"` ` ` ` ` ` ` ` ` ` ` ` ` ` ` ` ` ` ` ` ` ` ` ` ` ` ` ` ` ` ` ` ` ` { ` ` ` ` ` ` ` ` ` ` ` ` ` ` ` ` ` ` ` ` ` ` ` ` ` ` ` ` ` ",
"` ` ` ` ` ` ` ` ` ` ` ` ` ` ` ` ` ` ` ` ` ` ` ` ` ` ` ` ` | } T.T.} } | ` ` ` ` ` ` ` ` ` ` ` ` ` ` ` ` ` ` ` ` ` ` ` ` ` ` ` ` ",
"` ` ` ` ` ` ` ` ` ` ` ` ` ` ` ` ` ` ` ` ` ` ` ` | T.^.(.}.XX>X>X>X;X-XXX|.(.W.} ` ` ` ` ` { ` ` ` ` ` ` ` ` ` ` ` ` ` ` ` ` ` ` ",
"` ` ` ` ` ` ` ` ` ` ` ` ` ` ` ` ` ` ` ` ` } ^.oX>X6XuXiXuXuX>X>X>X>X>X>X1X>X;XXX}.T.` ` | ` ` ` ` ` ` ` ` ` ` ` ` ` ` ` ` ` ` ` ",
"` ` ` ` ` ` ` ` ` ` ` ` ` ` ` ` ` ` | ^.XX>XuXsXsXpXuXrX6X4X>X>X>X>X>X>X;X-X-X-X-X/.oX(.| ` ` ` ` ` ` ` ` ` ` ` ` ` ` ` ` ` ` ` ",
"` ` ` ` ` ` ` ` ` ` ` ` ` ` ` ` ` W.XX5XeXeXrXpXpXpXpXuX6X-X;X>X>X>X>X>X;X-X-X-XoXXXpXpX-X!.` ` ` ` ` ` ` ` ` ` ` ` ` ` ` ` ` ` ",
"` ` ` ` ` ` ` ` ` ` ` ` ` ` ` j.|.5XeXqX0X3X;XuXpXpXpXuXrXXX-X,X;X;X;X;X;X-X-X-X{.1XuXpXsX6X|.T.` ' ' ' ' ' ' ' ' ' ' ' ' ' ' ' ",
"` ` ` ` ` ` ` ` ` ` ` ` ` ' ^.;XeXqX2X<X<X<X.X1XuXuX5X;XoX| T.W.R.R.W.^.}.|.XXXX.X5XuXpXpXaXpX>X^.' ' ' ' ' ' ' ' ' ' ' ' ' ' ' ",
"` ` ` ` ` ` ` ` ` ` ` ` } }.5XeXqXqX<X<X<X<X#X|..X/.[ Q j + u j g g p j k b ~ } `.1XuXuXuXuXiXpXrXoXT.' ' ' ' ' ' ' ' ' ' ' ' ' ",
"` ` ` ` ` ` ` ` ` ` ` ` ^.5XeXqXqX2X<X<X<X#X'.b p p i i i + t i i u u u u i u r x } }.4XyXuXiXiXsXpX@XW.' ' ' ' ' ' ' ' ' ' ' ' ",
"` ` ` ` ` ` ` ` ` ` ` W..X@X2XqX9X<X<X3X X] k 7 t i i u t @ @ o O o o o O 3 + O i k ! j.oX6XyXuXtXeXeX@XR.' ' ' ' ' ' ' ' ' ' ' ",
"` ` ` ` ` ` ` ` ` ` W.5X4XXX$X<X<X<X#X~.b p p 7 O 7 3 5 5 5 4 5 4 4 4 4 5 5 X . O 7 i l ! !.1XeX9XqXqX2XOX} ' ' ' ' ' ' ' ' ' ' ",
"` ` ` ` ` ` ` ` ` T.>X5X>X>X.X$X<X+Xk.j i u + o 5 4 w a w w w 4 w w 8 q w a a 4 o . X - r i [ +X9XqX9X2X<X`.' ' ' ' ' ' ' ' ' ' ",
"` ` ` ` ` ` ` ` | oX4X>X>X>X-XOX].! p i 7 o 5 4 w w 3 - - 8 w 4 a 4 = = = - 8 0 a 4 o .   t g  .+X2X<X<X<X#XT.' ' ' ' ' ' ' ' ` ",
"` ` ` ` ` ` ` ` ^.1X>X>X>X;X;X{.t t i + o 4 w 4 O = : > > 9 w 5 w 3 # * $ $ # = 3 a a 5 . o i g k.*X<X<X<X<X{.| ' ' ` ` ` ` ` ` ",
"` ` ` ` ` ` ` | .X>X>X>X>X;XXX/ - O O o w 6 3 ; % ..o.$.@.9 w 4 w 8 : o.o.#.& $ # = 8 a 4 . o i k ).<X<X<X<XOXj.' ' ` ` ` ` ` ` ",
"` ` ` ` ` ` ` W.:X>X>X>X;X-X!.p u @ o y 4 X # & #.o.#.$.@.9 w 4 w 3 % #.#.$.o.....* # 7 a 4 . O g / +X#X+X+X'.~ ` ` ` ` ` ` ` ` ",
"` ` ` ` ` ` ` ^.;X>X>X-X-X|.L i r O y 4 = $ ..+.$.+.+.$.@.9 w 4 w 3 % #.#.#.#.o.$.+.* # 9 a 3   O l R. X+X#X$X! ~ ] ` ` ` ` ` ` ",
"` ` ` ` ` ` ` /..X@X@X-X-XR.p u O 4 w X $ +.+.#.$.o.+.$.@.9 w 5 w 3 % $.#.#.#.o.$.$.....: 8 a o   i ' #X2X<X<XR.Q ' ` ` ` ` ` ` ",
"` ` ` ` ` ` |  X&X$X+X+X|.k 7 + 5 w + # ..#.#.#.$.#.#.$.@.t e V Z s > ;.;.;.%.o.$.#.#.#.& ; a 3   u ^  XqXqX2X X! ` ` ` ` ` ` ` ",
"` ` ` ` ` ` | +XwX9X<X&X'.t @   q q , ..o.$.$.$.$.$.-.>.<.~ W E U.U X.0.u.c.y.>.,.-.O.$.#.: 8 a . 7 ! /.qXqXqX#X/ ` ` ` ` ` ` ` ",
"` ` ` ` ` ` } $XwXwX0X<X].g - o w 8 , < < < < 1 v <.i.c.3.x.P.E Y.U X.B.B.B.N.g.g.h.d.&.@.> 9 w 5 o ! ~.2XqX9X2X!.~ ` ` ` ` ` ` ",
"` ` ` ` ` ` j.#X9X0X0X&Xn.g - 3 a a y y f a C ) ) d.u.Z.3.b.P.E Y.U @.S.i.z.] H.I.I.I.{ G f y a 5 . Q ).2XeXtXrX5XQ.` ` ` ` ` ` ",
"` ` ` ` ` ` T.#X<X<X<X&Xb.k + 4 a w 6 8 y h b B f.4.u.B.3.E.P.E U.P @.r.r.y.s.N n z S F D C d a 4 . ! (.rXsXaXaXaX/.~ ] ` ` ` ` ",
"` ` ` ` ` ` T.;X2X<X<X&X~.x O 4 a - , < $.e.e.e.B.u.c.c.3.E.P.E Y.T @.8.y.B.u.2.e.3.=.@.1 2 9 a 4 3 | (.rXaXaXaXsX(.z ~ ` ` ` ` ",
"` ` ` ` ` ` ^.pXaXpXtX5X).x . 4 8 : ,.0.:.v.Z.Z.B.r.A.c.3.E.P.E U.T X.0.D.B.B.Z.A.v.u.y.w.,.1 V 4 y K.(.6XpXpXaXsX(.s z ` ` | | ",
"` ` ` ` ` ` !.iXaXuXrX5X`./ o 4 8 @.r.w.,.u.u.u.Z.0.u.A.q.E.P.R U.T X.r.D.B.B.A.A.B.t.A.c.9.a.D d s R.`.5XyXuXpXsX(.i x ~ | | | ",
"` ` ` ` ` ` W.rXuXrXrX5X`.] O 4 f =.r.r.:.c.p.r.Z.y.u.A.q.E.P.R U.T @.0.u.B.B.S.S.c.8.S.B.8.s.J C G R.`.5X6XrXuXsX(.t j ! ` { { ",
"` ` ` ` ` ` T.7XuXrXrX6X[.b.3 w S =.8.y.9.Z.8.w.A.c.B.Z.q.Q.L.R U.T @.0.w.Z.B.F.D.c.8.B.Z.0.s.J C G W.`.7X6XrXuXsX(.r j Q ` ` ` ",
"` ` ` ` ` ` T.5XpXuXrX6X}.R.u d D &.8.c.i.A.8.r.A.B.S.B.q.b.L.R U._ %.0.8.Z.Z.D.A.Z.8.c.S.r.s.J C Q W.}.6XrXuXpXsX^.r j Q ` ` ` ",
"` ` ` ` ` ` } 4XpXpXrX6X{.R.i V S &.i.Z.c.A.r.c.V.A.S.B.q.b.L.R Y._ %.i.8.Z.Z.B.B.Z.0.y.S.p.s.J C Q W.}.rXuXpXaXsXW.r j Q ` ` ` ",
"` ` ` ` ` ` } 1XaXpXuXrX{.W.s d S &.u.A.B.Z.t.B.V.V.S.B.q.b.L.R Y._ ;.y.c.A.Z.t.c.c.0.y.B.0.a.J V x j.}.5X6XrXyXrX} r j Q ` ` ` ",
"` ` ` ` ` ` } >XiXrX6X6X}.j.u d D a.u.A.B.B.u.A.V.B.A.B.q.k.L.R U._ <.Z.D.A.A.w.c.c.8.r.c.8.f.J d r ~ ^.|.|.|.|.W.i u x ! ` ` ` ",
"` ` ` ` ` ` | (.-X-X;X>X{.` O d D a.r.B.A.Z.B.A.V.B.B.c.q.k.L.R U._ ;.A.D.A.S.8.y.t.8.w.y.7.B J d j R.}.@XXX.X.XR.t j z ~ ` ` ` ",
"` ` ` ` ` ` ` W.4X6X6XrX.XT.r a D a.w.B.S.A.Z.A.B.c.c.t.2.k.L.R U.) %.u.A.V.B.7.w.t.c.8.r.7.B J a j R.{.>X>X>X>XW.i x z ` ' ' ` ",
"` ` ` ` ` ` ` W.6XpXuXuXXXb.t a D v w.V.A.S.A.V.V.y.u.y.3. .G.R U.T *.e.V.B.r.:.9.B.B.8.0.2.B J a p R.|.1X>X:X;XR.p x b ` ' ' ' ",
"` ` ` ` ` ` ` T.1XiXuXrX@Xj.i q D ) m.m.m.m.m.n.M.h.c.C.b.I.E R H.E ) h.B.e.g.l.M.n.n.n.n.l.^ J w p R.|.>X;X;X-Xj.g x Q ' ' ' ' ",
"` ` ` ` ` ` ` } -XiXrXrX;Xj.g 4 F Y G.G.E H.G._ ) s.i.h._ R P P R P D s.r.3.( ) R E _ J.R P D K 4 i W.|.-X-X-X-X' g x Q ' ' ' ' ",
"` ` ` ` ` ` ` ` .XuXrXrX;X} u 5 S l v 1 1 d.s.d.h.2.9.h.F D D D D D D a.8.0.h.&.&.a.1 1 N N S D 4 k !.@X5X4X4X4X{.~ l ! ' ' ' ' ",
"` ` ` ` ` ` ` T.-XuXuXpX4X` 7 5 S m >.9.,.c.u.u.Z.9.6.4.m S D P T F h *.0.Z.c.2.B.Z.0.:.7.<.G H a ! !.@X1X1X>X>X>X[ j b / | ' ' ",
"` ` ` ` ` ` ` (.5X5XeXtX5XR.z 3 S m 1.r.7.u.r.r.i.7.:.9.<.n G.D I.) < ,.0.A.i.:.t.r.0.:.9.<.L H a / !.XX1X1X>X;X-X/ p l ! ' | ' ",
"` ` ` ` ` ` ` ^.8XqXqXqX2X!.L 3 S m 3.y.7.0.9.7.8.7.:.0.2.( H.Z P.I <.8.7.r.9.:.9.9.9.7.8.<.G H y ' ^.@X>X>X>X:X-X~ g l ~ | | ' ",
"` ` ` ` ` ` ` W.2XqXqXqX<X/.! 3 C m 1.8.:.0.8.:.r.8.:.r.>.( H.Z G.F <.i.5.8.r.6.6.9.6.>.u.<.F A y } /.@X>X>X:X;X-X~ j z / | | ' ",
"` ` ` ` ` ` ` T.3XqXqXqX<X'./ 7 V L <.7.,.>.2.,.>.,.-.>.;.( H.Z G.G %.e.,.2.e.1.%.2.,.-.q.*.F A s j.).@X;X;X;X-X=X^ j b ` | ' ' ",
"` ` ` ` ` ` ` } #X2X<X<X<X[.' t V D L ( M n n n n n b n n I H.Z G.D b B n ( ( M m B M n n L D V s R.(.-X-X-X-X-X@X! k b ' ' ' ' ",
"` ` ` ` ` ` ` ] $XqX2X<X<X{.j.i f J Z H H H H Z Z Z D Z Z Z P C P Z Z Z Z Z Z Z Z Z Z Z Z Z Z d j W.`.-X-X-X-X-X@X! k ! ' ' ' ' ",
"` ` ` ` ` ` ' ' ). X X{.{._.j.Q G ) Y Y Y Y Y Y I I I I I I I I I I I I I I I I I I I I I I I G ^ T.!.}.`.`.`.`.(./ !  .| ' ' ' ",
"` ` ` ` ` ` ' ' ' ' ' ' ' ' ' ' | { { { { { { { { { { { { { { { { { { { { { { | ` ` ` ` ` { { { { | ` ' ' ' ' ' ' ' ' ' ' ' ' ' ",
"` ` ` ` ` ` ' ' ' ' ' ' ' ' ' ' ` ` ` ` ` ` ` ` ` ` ` ` ` ` ` ` ` ` ` ` ` ` ` ` ` ` ` ` ` ` ` ` ` ` ` ' ' ' ' ' | | ' ' ' ' ' ' ",
"` ` ` ` ` ` ' ' ' ' ' ' ' ' ' ' ` ` ` ` ` ` ` ` ` ` ` ` ` ` ` ` ` ` ` ` ` ` ` ` ` ` ` ` ` ` ` ` ` ` ` ' ' ' ' ' ' | ' ' ' ' ' ' ",
"` ` ` ` ` ` ` ` ` ` ` ` ` ` ` ` ` ` ` ` ` ` ` ` ` ` ` ` ` ` ` ` ` ` ` ` ` ` ` ` ` ` ` ` ` ` ` ` ` ` ` ` ` ` ` ` ` ` ` ` ` ` ` ` ",
"` ` ` ` ` ` ` ` ` ` ` ` ` ` ` ` ` ` ` ` ` ` ` ` ` ` ` ` ` ` ` ` ` ` ` ` ` ` ` ` ` ` ` ` ` ` ` ` ` ` ` ` ` ` ` ` ` ` ` ` ` ` ` ` "
};
