/* XPM */
static char *d23255aa072c42bfa94155f7496b0c54g04a48Zwf4GVIz4J[] = {
/* columns rows colors chars-per-pixel */
"64 64 150 2 ",
"   c #050404",
".  c #080607",
"X  c #090708",
"o  c #0D0B0C",
"O  c #100E0F",
"+  c #0F0E10",
"@  c #110F10",
"#  c #0D1919",
"$  c #131112",
"%  c #181516",
"&  c #1B1816",
"*  c #111618",
"=  c #1A1718",
"-  c #141D1E",
";  c #1B1A1A",
":  c #25211C",
">  c #2B261F",
",  c #152023",
"<  c #1B2326",
"1  c #1A2A2C",
"2  c #152C31",
"3  c #1C2D31",
"4  c #163035",
"5  c #1A3637",
"6  c #1C363A",
"7  c #1E3A3F",
"8  c #262320",
"9  c #2C2622",
"0  c #2F2921",
"q  c #322C23",
"w  c #34322C",
"e  c #3D3528",
"r  c #223436",
"t  c #23373A",
"y  c #243A3E",
"u  c #293A3A",
"i  c #303835",
"p  c #433A2E",
"a  c #3E463E",
"s  c #4E402C",
"d  c #53462F",
"f  c #5E472D",
"g  c #4C4133",
"h  c #534631",
"j  c #564933",
"k  c #5A4C33",
"l  c #63563A",
"z  c #6A5B3F",
"x  c #725B3A",
"c  c #203C40",
"v  c #1C4B4F",
"b  c #1F535A",
"n  c #224B4D",
"m  c #275B5F",
"M  c #286365",
"N  c #306265",
"B  c #3A6B6B",
"V  c #27797E",
"C  c #397276",
"Z  c #30797A",
"A  c #3E7A7C",
"S  c #444B41",
"D  c #6C5C41",
"F  c #776643",
"G  c #66735C",
"H  c #7F7958",
"J  c #5D7565",
"K  c #477A77",
"L  c #4B7D77",
"P  c #457478",
"I  c #537F76",
"U  c #697964",
"Y  c #906A37",
"T  c #9C7237",
"R  c #9B723C",
"E  c #A6793A",
"W  c #836F49",
"Q  c #837048",
"!  c #8D784D",
"~  c #9B7846",
"^  c #957D4D",
"/  c #9C7B4C",
"(  c #A57D44",
")  c #AC7E40",
"_  c #4D877F",
"`  c #53847D",
"'  c #5B837B",
"]  c #5A897F",
"[  c #66836C",
"{  c #7F8766",
"}  c #7C8C6D",
"|  c #608277",
" . c #6D8570",
".. c #61827A",
"X. c #B1813F",
"o. c #8F8155",
"O. c #978050",
"+. c #9B8250",
"@. c #978A5A",
"#. c #A8844F",
"$. c #AC8A4E",
"%. c #B88142",
"&. c #AB8D53",
"*. c #A98C58",
"=. c #B38D50",
"-. c #AD9355",
";. c #B69756",
":. c #BD9756",
">. c #B3945B",
",. c #848E6C",
"<. c #988B61",
"1. c #8E926A",
"2. c #98956B",
"3. c #A79864",
"4. c #AC9B68",
"5. c #C0934D",
"6. c #C29250",
"7. c #C39956",
"8. c #CE9A53",
"9. c #CA9C58",
"0. c #E09A49",
"q. c #C5A05E",
"w. c #CAA45E",
"e. c #D6A355",
"r. c #DFA955",
"t. c #E3AB56",
"y. c #E9B256",
"u. c #E5B05E",
"i. c #EBB45D",
"p. c #EBB85D",
"a. c #F6B95C",
"s. c #CAA662",
"d. c #CCA963",
"f. c #CDAD69",
"g. c #D0A762",
"h. c #D5AD63",
"j. c #D9B162",
"k. c #EDBA66",
"l. c #EABD6D",
"z. c #F2BC64",
"x. c #F5BF68",
"c. c #F3C671",
"v. c #F8CA72",
"b. c #2E7E80",
"n. c #398081",
"m. c #478885",
"M. c #4B8A82",
"N. c #498F88",
"B. c #6C8D90",
"V. c #76A9AD",
/* pixels */
"o o o o X     o o o o o o o o o o X o o o o o o o o X o O X     X .     X $ o o o o o o X o $ o O o o o o X o O o o o o o o X o ",
"$ O $ $ o . . $ O $ $ $ $ @ O @ $ o @ $ $ $ O O O $ o $ $ o   . o .   . O % $ $ @ @ O O o @ % $ $ $ $ O O o O $ @ $ $ $ @ @ O o ",
"$ $ $ $ o X X $ @ $ $ $ $ $ $ $ $ @ $ $ $ $ $ $ @ $ O $ % O   . o o . X $ = $ $ $ $ $ $ o O % $ % $ @ $ $ @ $ $ $ % % $ $ $ @ O ",
"$ O o X . . X $ o @ @ @ $ O o o @ o @ $ O @ o o O @ o O $ o     o o o X $ % @ @ O $ O o X . $ @ $ o . X o o o $ o $ $ O o o o o ",
"$ O o X . X o $ o @ @ @ @ O o o $ o @ $ @ @ o o o @ o O $ O . . o @ O o $ $ o @ O $ @ o X . $ O $ o . X o o O $ o $ $ O o O o o ",
"o o o o X o o o X o o o o o o o o o o O o o X X X o X o $ o X X o o o o o . . o o o o o X X @ o o o X . . . o o o O o o o o o o ",
"$ o @ $ O o o $ o @ @ @ $ o o o $ O $ $ @ @ o o o o o O $ @ $ O O o @ o o     o O O o O o O $ O $ $ $ X   . o $ O $ $ $ @ O o o ",
"$ O $ $ $ @ $ $ O $ $ $ $ @ o o $ $ $ $ $ $ O @ @ $ O $ $ O $ @ $ @ $ O o X . @ $ $ $ $ o $ % $ % $ $ o . X $ % $ $ $ $ $ $ @ O ",
"$ o O @ o o o $ o O o O @ o . . o o @ @ o @ o o o O o o . . o o o o O o X @ o @ O O o o o O $ o @ O O o o o o $ o @ $ @ o o o o ",
"$ o @ $ O o o $ O @ @ @ @ o . . o o $ $ @ $ O O O $ o o .   o o O O @ o X @ O $ O @ O O o O $ o $ @ @ O O o O $ O $ $ $ O o O o ",
"$ o @ $ o o o $ o $ @ @ @ o X X O o @ $ @ $ O O O $ o o o X O o O O O o X X X @ @ @ @ O o O $ O $ $ @ O O o O $ o $ $ @ O o o o ",
"$ o @ $ O o o $ O @ @ @ $ O o o O o @ $ O $ o o o @ o @ $ O O o O O @ o X . . @ O @ O O o O $ O $ $ $ O O o o $ o $ $ @ O O o o ",
"$ o O @ O o O $ O @ @ O $ O o o @ o @ $ O @ o o o O o $ $ O o o o o @ o o X . O O O o O o o $ @ $ $ @ O O o o $ O $ o o o o o o ",
"@ o o O o o o @ o o o o O o o o o o o @ o O o o o o X o $ o . . o o O o o @ o o o o o o X o $ o @ O O o o o o @ o O X   . o o o ",
"$ O $ $ $ O @ $ O $ $ $ $ @ o O $ O $ $ $ $ O @ @ $ o @ $ o . . o $ $ o $ % $ $ $ $ @ @ o $ % $ $ $ $ $ @ o @ $ @ $ X   X o O o ",
"o o $ $ @ o o $ O $ $ @ o o o O $ @ $ $ $ $ O @ @ $ o o o o X X @ @ $ O $ % $ $ $ $ $ @ o @ % @ $ $ $ @ @ o @ $ @ $ o X o O @ O ",
"  . o $ o . . o o + o o .   X o $ o @ $ @ @ o o o O o .   . X X o o O o @ $ @ $ O o O O o O $ O $ @ @ o o o o $ o $ @ O o o o o ",
". X o o X . . o o o o o .   X o @ o O $ O $ o o o o X     o > e e : @ X o $ o @ o o o o X o $ o @ O O o o o o $ o @ @ O o o o o ",
"o X o + o   . o o o o o .   . o @ o O @ o @ o o o O o X q ^ j.l.l.s.x ; o $ o @ O o X . . o $ o O O O o o o o @ o @ @ O o o o o ",
"$ + + $ o . . $ o $ $ o .   X o $ o @ $ O $ O O o @ o e w.y.-.1.2.f.z.~ u % @ $ @ O X   . o $ @ $ $ $ o o o O $ O $ $ $ O o o o ",
"$ o @ @ o . . @ o X o o X . X o @ o O o o O o o o o & ;.r.[ Z v 6 i O.z.H c o @ O o X . . o $ @ $ @ O o o o o $ o O O o o X o o ",
"$ o @ $ o . . O X . X o @ o o o @ o o . . o o o O o j p.{ V - o o o 8 q.9.B * @ O O o o o o $ @ $ @ O o o o o $ O $ $ o .   X o ",
"% $ $ $ $ X X $ o . o $ $ $ $ @ $ $ $ X . @ $ $ $ $ Q t._ 6 $ $ $ $ $ W u.I 3 $ $ $ $ $ @ $ % $ % $ $ $ $ o @ % $ % % $ X   o @ ",
"$ O @ $ O X X $ o X o @ $ O O o $ o $ o o O o O O @ ! r.K , @ o + O + F i.] 6 @ @ @ $ @ o @ $ @ $ $ $ @ O X X $ @ $ $ @ o X o o ",
"$ o @ @ O o o $ o o O O @ o o o @ o $ $ @ @ O O o o z p.U 2 : k s % % &.e.m.1 $ @ O @ O o O $ O $ $ @ O o . . O O $ $ @ O o o o ",
"o X o o o o o o o o o o o o o o o X o O o o o X X o 0 h.7.a ^ v.u.f l p.@.b.$ o o o o o X o @ o o o o o o . . O o X o o o o o o ",
"@ o o O o o o O o O O O O o o o O o o O O @ o o o o o z k.8.#.:.=.&.p.5.N.n O O o o o o o O $ o O o o o o o o $ o . X o o o o o ",
"$ $ $ $ @ O O $ o $ $ @ $ $ O O $ O $ $ $ $ @ O O $ o = D h.g.>.>.e.$.M.M % $ $ $ @ @ @ O $ % $ $ $ $ @ @ O @ $ o . o $ $ @ O @ ",
"$ o o o o o o O X X o o O o o o O o O O O O o o o O o O $ p >.d.w.( A v $ $ O O o o o o o o $ O O o o o o o o $ o o o o X . X X ",
"$ O @ @ O o O $ o . o $ $ O O o O O $ $ O $ O O O @ O $ $ 9 *.s.q.+.n.* O $ @ $ @ @ O O O O % @ $ @ @ @ O o $ $ O $ $ O .   X o ",
"% $ % % $ $ $ % o . O % % $ $ $ $ $ % % $ % $ $ $ $ O $ = $ g 6.%.L m @ % = % % $ $ $ $ @ $ = $ $ $ $ $ $ @ $ % $ % % $ X . o @ ",
"$ o O $ O o o $ o o O O $ O o O @ o @ $ O @ o . . . . O $ o h x.0.` 6 o @ $ O . X o o o X X $ O @ @ @ @ O o o $ O $ $ O o o o o ",
"$ o O $ @ o @ $ o O @ $ $ O O O $ o @ $ @ @ o         o $ X h k.) ` 6 o @ $ o   . o o O X . $ @ $ $ $ O o o o $ @ $ $ O o o o o ",
"o X o o o o o O o o o O O o O o O o o o o o X . .     X .   h k.R ' 6 X o @ X   . X o o X X o o o o o o X . X @ o o o o o X X X ",
"$ o O O o o o @ o O O O @ O O O O O O $ O O o o X     o     h k.R ' t o O $ o   . o o o o o $ O @ O O o o o o $ o @ $ O o o o o ",
"% $ $ $ o o @ $ O $ $ $ $ @ @ @ @ O $ $ @ $ @ o X   . o X   h k.R ..y o $ % O X X O @ $ o @ % $ $ $ $ $ $ o $ % $ $ $ $ $ $ $ @ ",
"O o o X . X o @ o O O O O o o o . . o . . o o . . o . X o X d k.R ..t o o @ o o X . o o X o $ o O o o o o X o $ o @ @ O o o o o ",
"$ @ O .   X O $ O $ $ $ $ @ O o     o .   o o . . @ o . $ o d k.R ' y o @ % $ $ O . X O o @ $ $ $ $ $ @ O o @ $ @ $ $ $ @ O O o ",
"% $ @ X . o $ % @ $ % $ $ O @ O X . o .   o O X X $ o X $ + h k.R ` y o $ = % $ O o o $ @ $ % $ $ $ $ $ $ O $ % $ % % $ $ $ $ @ ",
"$ o @ O o o o $ o $ $ o . . o o O X       o o o o @ o o $ o j k.T ` 6 X o $ @ $ O O O O O O $ o $ @ @ o o o o $ O $ $ @ O o o o ",
"$ o O $ O o o o o o o o .   . o $ o .   . o o o o @ o o $ o j k.R G S e w < o $ O O O O O O $ O @ @ O o o X o $ o $ @ O o o o X ",
"O o o o o o X .   . X o X X X o o o o o o o X o o o X o @ o j k.) t.l.l.4.N X o o O o o o O $ o o o o .   . o O o @ o o o X .   ",
"$ o O O o O o       X @ $ O O o @ o $ $ @ O o o o @ o @ $ o j k.X.a.c.3.} C X O O @ O O o O % $ $ @ O X   . O $ o $ $ O o o .   ",
"$ O $ O X o o     . o @ $ O o o $ O @ o o o X o o o o $ % @ j k.X.a.l.| V.B.o $ @ @ O O o O % @ $ $ $ X . X @ $ O $ $ $ @ o X . ",
"$ o O X . X X     o o O O o . . o o o .             . o $ o j k.X.a.v.d.<.P @ @ O O o o o o $ O $ @ @ o o o o $ o $ @ @ O o o X ",
"$ O O X   X X . . o O O $ O .   o o @ X             . o $ o j k.E o.} ,. .A $ @ @ $ O O o @ @ o $ $ @ o @ o o $ @ $ $ $ @ @ o O ",
"$ O @ o X o o o X @ $ $ $ @ X . X X o o X X X . . X X O $ o j k.T L b 4 7 r @ $ @ $ O O o o X X $ $ @ o O o o $ @ $ $ $ @ O o o ",
"$ o $ $ o o o $ o @ $ $ $ o o X     o $ + o o o o o o @ $ o j k.Y M.5 . o @ @ $ @ @ o o o o . . O $ $ O O o O $ o $ $ $ @ O o o ",
"O X o o o o o $ o o O O O o o X . . X o O o o o o O o o o X q / J b.* . o $ o o o o o o o o X . o @ O o o o o o X @ @ O o X o o ",
"@ . . X o o o @ o o o O O o o o o X . o o O o o o O o o .   o < n #   . o $ o . . o o o o o @ o O O O o o o o     O $ o .   X o ",
"$ X . o @ O $ $ @ $ $ $ $ $ @ O $ o . o $ $ $ $ $ $ O o . . o o       . @ % o . . @ $ $ o $ % $ $ $ $ $ @ O o .   $ % $ X   X o ",
"X X X X X o O $ o $ @ @ $ O o o $ o X o $ $ @ @ @ $ o O o X @ o X . X X @ % o o o $ O O o O $ o $ $ $ o X X o X X @ $ $ o X o o ",
"  . o .   X o @ o $ O o @ o o o $ o O $ @ @ o o o @ o o @ o @ o o o o o O $ @ O o @ o o o O $ o $ @ o X   . o $ o $ $ @ o o o o ",
". X o X   X o X X O o o o o o o O o O O O O o o o @ o o $ O @ o o o O o O $ @ O o o o o o o $ O $ @ o X . . o $ o @ $ @ O o o o ",
"o o o o X o X     o o o O o o o @ o @ @ O O o o o O o o $ o @ o o o o o @ % @ @ o o o O X o $ O $ @ @ o o X o @ o O @ O o o o o ",
"$ o @ $ $ O o   . O @ @ $ O o o $ o $ $ $ $ @ @ @ @ o @ $ $ $ O @ O @ o @ % $ $ @ @ $ $ o @ $ @ $ $ $ O O o O $ @ $ $ $ $ O o O ",
"O o o O o o o X X o o O O o X X o o @ $ o O o o o o X o O o @ o o o o X X $ O O o o O o X o $ o X X o o o o o $ o O O @ O o o o ",
"@ o O $ O o O $ o $ @ @ $ O . . o o @ $ @ $ o o o O o $ $ @ $ O @ O O X . $ @ $ O @ @ o o o $ o   . o O o o o $ o @ @ @ @ o o o ",
"$ $ $ $ $ @ $ % @ $ $ $ $ O . . @ @ $ % $ $ @ $ $ $ O $ % $ $ $ $ $ $ o X % $ $ $ $ $ $ O $ = O . X $ $ $ @ $ % $ $ $ $ $ $ $ @ ",
"$ O $ $ o o o $ o . X o X . . . . . o $ O X . o o O X X O O @ O O O @ X X $ O $ O @ O O o o $ o X o @ @ O o o $ o $ $ @ o o o o ",
"@ o @ @ o o o $ o . X o .   X X     o $ O .   X o @ X . o O $ O O O @ o o $ O @ O @ o O o o $ o $ @ @ O O o o @ o $ $ @ O o o o ",
"o o o X . X X O o X X X X X X o X . o O o X X o o o X . o o o o o o o X o O o o o o o o X o X X o o o o o X o @ o O O o o o o X ",
"@ o o .   . o @ o O X . o o o o O o O O o @ o o o O X . @ @ @ O O o o o O $ O @ o O o o o X     O O O o o X o $ o @ @ O o o o o ",
"% $ $ .   X @ % $ $ X . o $ $ $ % $ $ % $ % $ @ $ $ o . % % % $ $ $ $ O $ ; $ % $ $ $ $ @ o   . $ $ $ $ $ O $ % $ % % % $ $ $ $ "
};
