/* XPM */
static char *cb5030c9f86648ceeb3db932e52b01437e6ZRvPKF7EEw6Rh[] = {
/* columns rows colors chars-per-pixel */
"64 64 147 2 ",
"   c #1C2427",
".  c #1E2629",
"X  c #1F282B",
"o  c #222A2D",
"O  c #262E31",
"+  c #282F32",
"@  c #273033",
"#  c #2B3235",
"$  c #2E3639",
"%  c #2F383B",
"&  c #30373B",
"*  c #323A3D",
"=  c #363D41",
"-  c #383F43",
";  c #374043",
":  c #3A4245",
">  c #3D454A",
",  c #3F484C",
"<  c #40474C",
"1  c #42494D",
"2  c #454D52",
"3  c #484F55",
"4  c #495156",
"5  c #4D545B",
"6  c #50575E",
"7  c #51595E",
"8  c #545C62",
"9  c #585F66",
"0  c #596166",
"q  c #5F676A",
"w  c #5F666B",
"e  c #5D646A",
"r  c #5D646C",
"t  c #5D656C",
"y  c #5E656C",
"u  c #5E666D",
"i  c #5F666E",
"p  c #5F676E",
"a  c #5D646B",
"s  c #5F686C",
"d  c #60676F",
"f  c #60676E",
"g  c #60686B",
"h  c #61686D",
"j  c #61696D",
"k  c #61696E",
"l  c #60686F",
"z  c #62696E",
"x  c #636B6F",
"c  c #61696E",
"v  c #616870",
"b  c #626970",
"n  c #626971",
"m  c #636A70",
"M  c #636B70",
"N  c #626A71",
"B  c #636A71",
"V  c #636A72",
"C  c #636B72",
"Z  c #646B70",
"A  c #646B71",
"S  c #646B72",
"D  c #646B73",
"F  c #646C70",
"G  c #656C71",
"H  c #676E73",
"J  c #656C74",
"K  c #666D74",
"L  c #666D75",
"P  c #666E75",
"I  c #676E75",
"U  c #676E76",
"Y  c #656C73",
"T  c #686F74",
"R  c #686F76",
"E  c #686F77",
"W  c #686F77",
"Q  c #6A7277",
"!  c #697176",
"~  c #697078",
"^  c #6A7179",
"/  c #6B7378",
"(  c #6C737A",
")  c #6D7479",
"_  c #6D747A",
"`  c #6D747B",
"'  c #6E767B",
"]  c #6F767B",
"[  c #6D757C",
"{  c #6D757D",
"}  c #6E757D",
"|  c #6F777D",
" . c #6F767E",
".. c #6C737A",
"X. c #70777D",
"o. c #70777F",
"O. c #70777E",
"+. c #70787E",
"@. c #71787E",
"#. c #70787F",
"$. c #71787F",
"%. c #72797F",
"&. c #71797F",
"*. c #717880",
"=. c #727980",
"-. c #727981",
";. c #737A80",
":. c #737A81",
">. c #737A82",
",. c #737B82",
"<. c #747B82",
"1. c #747B83",
"2. c #747C81",
"3. c #757C82",
"4. c #757D82",
"5. c #747C83",
"6. c #757C83",
"7. c #757D83",
"8. c #757D84",
"9. c #767D84",
"0. c #777E84",
"q. c #767E85",
"w. c #777F85",
"e. c #747C83",
"r. c #787F86",
"t. c #788087",
"y. c #798187",
"u. c #798087",
"i. c #798088",
"p. c #798188",
"a. c #7A8188",
"s. c #7A8189",
"d. c #7B8289",
"f. c #7A828A",
"g. c #7D848C",
"h. c #7D858C",
"j. c #7F868D",
"k. c #7C838A",
"l. c #7F888E",
"z. c #80878E",
"x. c #80878F",
"c. c #80888E",
"v. c #80888F",
"b. c #81888F",
"n. c #848B92",
"m. c #888F96",
"M. c #899098",
/* pixels */
"q z 0 5 7 2 : 7 g ) 0.j.l.5.D 8 0 0 5 * : z 5.<.+.! D z E ) 9 : z >.5.0.0.t.5.) Y q > : 0 z z Y ) +.^ Y z Y 4 2 6 7 6 4 * * 4 0 ",
">.5.s.j.j.q 1 5.s.>.>.5.0.0.0.5.s.v.v.7 8 5.} } } >.0.5.+.o.C 4 >.t.s.+.} >.0.0.>.+.7 D <.>.0.5.} ^ ( } ) } 5 q >.>.s.} 1 q >.>.",
"E E E ^ ! 0 > 7 D r q C J r 8 6 6 8 r 7 5 E E E E E J E E ^ q 5 J E E E E E E E E C 2 0 J C D J J D q q d 0 1 2 r C r 8 > z ! ! ",
"J J C r 8 2 = > 6 5 3 5 8 5 5 5 5 5 5 2 5 J J J J J E J C r 7 2 C d r r C J J J D 5 * 3 5 4 4 5 4 > : 4 5 - * * = 1 1 = * 5 0 z ",
"5 8 4 : : 8 C 2 = : : > 3 5 5 6 6 5 7 2 > 8 8 8 8 8 9 8 5 > $ : 8 8 5 5 5 8 5 4 > $ * = 1 5 5 4 2 0 6 $ $ 2 5.) 5 : * * 4 2 : 3 ",
"$ * = 7 0 0 4 2 5 6 5 > = = 1 4 4 3 3 : $ : 1 1 > - = - * # & = : 2 1 > - $ # # @ : Y o.+.>.>.t.0.+.0.7 : } } >.z.s.+.7 Y +.8 * ",
"$ & * > > 0 ! s.s.>.s.k.+.0 = $ = = * $ * # @ # @ : 8 0 7 : 1 4 - = > 2 5 5 6 7 4 1 C r r z d 0 r D z 7 q } E J E ^ q : 2 4 > & ",
"0 1 1 q +.0.} ! C C J J ! ! 5 8 7 5 2 7 z q 7 1 : = 3 5 2 q k.s.0.5.t.s.s.k.s.0.r.z : 4 5 5 5 5 5 5 1 $ < 8 0 7 5 5 > 5 ! ) ! ! ",
"k.) 1 2 5 8 8 5 3 3 3 2 : = > ( <.0.5.} ( } >.5.+.! 4 $ 8 r.} ^ ^ } ( E E E J J Y 2 o $ : = = * * & o X o # * : > $ $ 8 } >.s.j.",
"E 8 4 q > * - * $ % $ = 7 ^ 5 0 J J Y r r J J E ( ^ 7 * = 2 q D J C r 0 8 8 8 6 3 # > 5 4 0 8 5 0 q 8 q 0 3 5 } } 0 : 0 J J E E ",
"8 7 1 8 5 2 5 5 : 0 ! +.0.>.7 2 8 8 7 4 5 7 8 0 6 1 2 q q > * 2 5 5 2 = * * # # + : 8 7 7 Y J D ^ } ^ C q 4 > r E } 4 5 8 7 8 0 ",
"> - $ = 8 5.0.5.4 : 5 8 8 7 1 & = * $ * : : & = 5 8 ) } } 0.8 $ + # + $ 4 0 Y } ) J 0 1 = > - = 1 5 4 = $ & * - 3 5 : = = = - = ",
"= = * 5 C e 7 1 = = = : > 1 4 7 6 0 z ! ( ) ) 7 8 0 0 r J ^ >.r : C +.s.n.s.o.^ 0.s.0.0.r.5.) 8 # * 1 5 E 0.<.q - @ & $ @ $ @ $ ",
"s.t.0 * : : & 8 ) ) +.5.t.s.t.t.t.k.0.o.C 7 J 0.2 * : > 3 8 8 2 0 j.>.} ^ E E E ^ J J C D ^ } J = q 0.>.} ^ } ^ 1 6 +.Y z ! ! +.",
"( } 0.C 5 1 > 9 r J ^ ^ ^ ^ E E E J C 0 5 5 5 5 1 5 7 2 : & @ @ 5 J J D D D D C e 8 8 5 5 8 8 2 $ J ^ E E E ^ q : 5 ) >.>.>.0.>.",
"E E E } s.5.1 5 5 0 J J J E E E E e 5 5 5 5 2 : z 5.>.>.0.+.r z 5 6 8 5 5 8 8 5 3 4 5 4 2 2 3 * * z C r e C d 0 1 3 C E E E E E ",
"J J z r C ( 2 > 1 5 8 8 8 0 0 0 0 8 6 5 2 > = z C 0 C E ^ } >.J } 1 - : : > = * = $ # $ $ * - * o = 2 > : : : > = 2 d C C Y J Y ",
"8 5 3 3 2 > & # $ = 2 5 4 4 5 5 5 4 1 > = # > 8 3 3 8 r C q 7 5 0 1 X o o * 4 ! >.r > o # 5 ! 5.7 : = * 2 1 + X X : 5 5 5 4 5 5 ",
"$ * $ $ * 1 8 z 8 1 > : : = = : = $ $ # $ * : : = = > 2 2 > * $ & 2 8 0 E k.z.0.+.j.k.1 2 >.0.j.n.z.s.t.j.j.o.8 % o # $ # + # # ",
"& : 7 ! t.v.n.n.n.n.j.r.) q 4 : & 1 s q z ) >.o.D 0 0 q 0 4 * * Y k.k.s.0.o.^ E E ^ Y : 3 Y E ^ ^ ( ^ ^ E ^ ^ C 1 7 Y ! z 8 4 - ",
"1 ) j.>.} ( ^ ^ ^ ^ ^ d q +.j.J 2 +.r.>.o.) ^ ^ >.s.s.k.j.0.2 > J ^ E E E J E E E J q 2 3 z C C J E E E E E e 3 1 } r.0.k.n.0.2 ",
"2 8 J J C d z e 8 7 5 5 5 5 6 5 > 8 J E J C D D z C J E ! d 1 : 7 0 r J C 0 8 8 0 8 8 4 2 8 8 8 8 0 r r 8 8 5 : 2 z J J E ^ 0 2 ",
"> 5 8 8 8 6 5 5 5 5 5 5 5 5 5 5 > 5 8 9 8 8 8 7 8 8 8 0 0 0 1 : 4 3 5 8 8 7 5 2 3 4 3 = = 3 5 3 5 4 3 3 2 : $ + = 3 8 8 0 r 8 < ",
"* $ : 2 5 5 2 > > > 1 2 2 2 1 : & * = : 1 2 1 > : : > > 1 > & * : : : > 2 1 : * * * # # # $ $ = = & # + # > 5 z : = 2 3 2 : * * ",
") q 1 $ # # $ $ 5 r 4 * $ = 4 r ) Y 5 = * $ $ # > 4 4 2 1 1 9 7 : : : $ $ = 7 8 5 5 7 7 4 1 > > 8 9 1 : * 2 4 6 7 $ # $ : 8 Y +.",
"m.n.k.X.z z ) Y 0 >.0.5 0 t.z.k.k.M.m.s.+.! 2 : J n.z.n.j.j.z.j.s.k.j.D : Y m.m.j.0.0.t.j.n.t.1 2 < 0 j.t.d 5 1 = & 1 q s.m.m.m.",
"} ^ o.t.s.>.J } 5 5 7 5 ^ } ^ E ^ 0.j.s.0.^ 8 1 7 ^ ^ ^ ^ ^ ^ ^ ^ ^ } 0 < 8 ( } ^ J J D ^ } C > : D r.} <.j.t.s.+.1 Y r.} ) } } ",
"C C C C d 8 5 9 0 : = 5 8 0 r J J J J J d 8 4 : 8 z r C Y J r r C r r 8 2 8 e d d 0 8 8 8 8 8 1 4 ! ^ E J E E ^ J 2 5 C J C C Y ",
"5 5 5 5 5 5 5 5 7 & & > 2 2 3 7 7 5 8 5 2 = : = 5 5 5 5 5 5 4 3 3 5 5 5 1 4 5 5 3 5 5 2 3 3 > * > 4 8 0 9 8 r r 0 2 2 0 8 5 5 5 ",
"5 5 5 5 5 5 5 5 2 & = $ * * $ & * * $ $ * r 5.8 $ * * = * @ o + + $ = = * * : : = * = > : $ # * = $ $ = = = - - = & : 4 5 5 5 5 ",
"> 1 , 1 1 1 < * $ & 4 z C ! ^ E D z 5 % q ^ C 4 + > 4 7 0 8 2 $ 1 E } } +.} } } ! q 1 & : 4 4 7 t.0.! q 0 : : 4 5 8 4 = = > 2 1 ",
"@ $ & * * $ $ * 2 8 4 2 4 8 r r 8 3 = * 4 1 : * z n.m.n.s.r.+.1 J j.0.>.>.>.0.0.r.0.7 4 0.0.5 8 s.n.t.t.o.4 Y j.j.s.j.>.0 7 3 & ",
"* 8 +.0.r.( } 0.k.j.t.( 7 2 < * # : 1 4 4 : # q 0.^ } ^ E E D 1 4 C E J E E E E J d 5 1 C e 2 e J D D J C 2 2 D ^ E ^ 0.s.k.r.2 ",
": 8 ( ^ } >.>.( ^ ^ ^ >.k.j.t.5 5 s.t.r.+.! 2 e J J C d d C d > 2 d E E J J C C 0 3 = * 5 1 4 0 8 5 5 7 6 > 4 r E E E E E E C 1 ",
": 6 J E E E E E E E E E E ^ ! 5 > d ^ J e 5 2 5 8 8 8 8 5 5 7 : 2 8 0 r 0 7 5 5 > $ 5 7 = = : = = = * $ $ * > 2 q J C 0 8 8 6 : ",
": 5 0 C J J E E E C r D J E D 6 > 7 r 8 7 5 = - 5 4 4 3 3 5 2 $ : 3 2 2 > = % + o 5 ^ } 8 = > 7 5 2 4 0 J +.8 = * 1 1 : = > > & ",
"& 1 4 5 5 8 8 0 0 8 5 5 8 d 9 5 : : > > * $ : : $ * * * = * $ = : > : # # : 2 7 : > 1 8 0 2 ^ j.j.n.n.m.n.j.j.0.4 * r ! ) 0.0.1 ",
"= = = = = : > > > > = * : 2 > = q q : + + 7 ) ! 7 # o X 2 0 z 5.s.t.>.E } >.C C ! J 5 * = > 0 ^ ^ ^ } } ^ ^ ^ ^ 7 < Y >.! ^ z 1 ",
"& # @ & $ $ * : 1 : * 8 0 - # * 2 4 1 * = : = > 3 : 2 1 > 2 7 q C J ^ ( } J 8 5 5 5 4 7 : : 8 D E E J C Y D r 0 4 : 5 8 4 5 4 : ",
"8 0 0 z ( ) } ) Y >.z 1 5 8 1 3 4 5 9 5.n.0.z $ @ ) m.n.0.8 = * : > 1 5 0 q 8 4 > 2 0.M.j.5 = 2 8 8 8 5 5 7 4 2 : 1 = > 5 7 5 7 ",
"s.0.} >.>.( J e 5 6 J 5 @ * z m.n.j.m.m.j.^ ! 3 * r >.} >.k.s.q 2 1 = * = 1 > > q v.s.s.m.n.q : * $ * : - * $ * 1 5 > r n.m.j.j.",
"E E E E D 0 8 5 5 5 3 : - q s.>.^ E } +.^ 8 6 4 > q E E J E +.z.n.n.v.+.$ o 1 5.m.0.E E ( o.<.0.+.5 C 0.) Y Y 0.0 * 2 5 D } ^ E ",
"J J J D 8 5 5 5 5 3 : C 4 3 r E E E E E E J 8 2 3 0 J E E E E C 9 0 0 0 > % ! 0.} E E J E E E ^ C 4 8 >.+.0.>.} z : 4 5 8 9 C D ",
"8 8 8 8 5 7 5 3 > = ! >.0 1 7 e C Y J J C r 7 = > 5 8 z C J C 8 5 5 5 5 5 : 8 C r C 0 8 r J J z 8 1 4 r C J J C 8 : 1 2 5 5 5 7 ",
"2 3 2 2 2 > = & $ 1 r z e > 3 5 5 8 8 8 5 5 1 $ # > 2 2 3 5 5 5 3 5 3 2 2 * : 2 > 2 3 2 5 8 5 5 > = 1 2 4 8 5 > > r 0 > = : > > ",
"$ : : = = = 1 0 g : = > : - = > 2 > : : = - : 5 2 = $ & $ * $ $ $ $ = < 5 7 > = * $ @ $ * : - = : q >.q = = : * 2 C J J q 2 * # ",
"1 >.r.>.5.r.s.0.0.s.Y d +.s.q & $ & 4 8 q ^ t.j.0.) ) >.0.5.q > 1 J k.n.n.m.n.n.k.+.q : : : $ * 0 5 1 1 = 1 8 > : : : = : : : * ",
"1 C >.} ^ ^ ! E E >.j.t.o.} 0.0 * 5 s.v.0.} ) ^ C 6 8 0 ! s.j.7 2 ^ >.} ( >.j.s.<.o.D < Y k.g * $ : z ! q > * z t.0 1 7 z Y +.q ",
"2 8 J E E E E E E E E E E E J q 1 4 8 ! E E E E J 8 5 5 5 5 z 6 2 0 C Y E E ^ E J E C 1 4 ^ 0 : q s.z.0.j.>.1 q } >.5.>.} ( ( 8 ",
"2 7 0 C J Y D D D D C C C d 8 2 : 5 8 Y E E E E ^ C 5 5 5 5 8 1 4 8 8 8 r E E E ^ J r > 1 Y 8 = 0 ( E J E 8 < 7 J J J E E E D 2 ",
"- 2 2 5 8 5 5 5 6 7 5 5 5 5 3 : : 5 8 6 8 9 0 q r r 8 5 5 5 2 # > 3 3 2 5 0 r r q 8 1 + : 8 1 : 8 8 8 9 0 4 : 3 5 8 8 0 r C 9 : ",
"* * ; = * * * & * * = * * = = * & = > : : > < 1 > > 1 1 1 > * + # % * & $ * = * = $ o o # 1 $ + = < 2 2 > : * 1 2 > > > : > : & ",
"5.5.5.+.7 * * 2 7 q 7 4 8 Y } z 5 = $ @ : q 5 * # + + & + X o > 8 *   o > 1 + o o $ = # o + o o # z s.t.0.>.5.j.s.! J ^ 5 # 1 z ",
"s.0.} ( 8 : 1 E >.5.0.0.>.} } >.t.s.>.0 4 } s.e * 1 5 >.} z : $ = = 1 J s.0.C = o 0 v.5.^ ! E 4 = 9 >.+.>.>.} } } >.>.0.z : ^ s.",
"J J Y J 0 > 1 0 E E E E E E E E E ( } 0 > 2 q : 1 >.n.n.j.v.0.1 $ Y <.>.^ J C > + 5 ^ >.o.>.k.J : 8 D J J J J Y D J D D 8 > 8 J ",
"8 7 5 5 5 : > 8 e C J J J J d q C J J 8 < - > = 4 r } ^ ^ ^ s.) 2 D J q 8 5 = o + 4 r d q C J 5 : 8 8 8 8 0 0 7 7 6 5 8 7 1 5 8 ",
"= = & * * = = 1 2 4 4 5 8 8 5 2 4 8 8 3 : & & > 5 8 e r D E r 2 * 3 < * $ # * 2 ; : > : > 5 8 4 $ : > 1 > > = & * = : : > & * - ",
"( J 4 $ # & & # # # $ & - : $ @ # $ * @ : q r : : 4 5 5 8 9 8 > $ $ : 0 ) +.5.r.k.t.^ 0 5 1 1 > # X o # 1 7 5 : + : 0 5 4 7 7 0 ",
">.<.t.0 3 : = 8 0 8 0 d ) +.0 1 5 8 4 : q 0 > 1 < > = * * - > > ^ s.k.v.s.o.^ ^ 5.>.o.>.t.k.s.+.2 5 Y } 0.s.s.t.8 5 <.0.0.0.s.s.",
"E E ^ >.s.) > ^ s.0.>.>.( ^ t.j.t.0.0.0 : $ 5 5.0.>.+.C z 0 : 4 s.>.^ ^ E E E E J J C C d C J Y 5 +.>.( E E E J 4 4 C E E E E E ",
"E E Y C ! +.5 8 E E E E E E ^ ^ ^ E ^ C = 7 ( C J ^ ( >.} Y ! 5 D D C C C C C r 0 8 8 5 5 6 8 3 4 } E E E E ^ J 2 4 C J J J E J ",
"0 8 5 5 5 5 3 7 r D J D C D D C C C 0 4 2 r 5 5 0 C Y 0 5 5 r 6 3 8 5 5 6 8 5 3 3 4 5 4 2 2 3 : 4 q d 0 8 r 0 0 4 1 7 7 8 7 8 8 ",
"= = * $ # # * < 2 5 5 4 5 5 5 5 4 4 3 : * 1 < < 3 5 5 3 2 2 3 : & : > > 1 2 1 > > : = * * = - & & : 3 2 2 2 2 1 > * * = = & & * ",
"@ @ $ $ $ * $ @ # # # # # # $ $ $ $ # # $ + # # # # # $ $ # @ $ * # + @ # # # @ + # $ # * @ @ & & @ # $ $ # # # # & # $ @ @ # @ "
};
